# xmcd
#
# Track frame offsets:
#	150
#	18980
#	37617
#	58251
#	73629
#	87633
#	117755
#	132809
#	155094
#	171140
#	191603
#
# Disc length: 2764 seconds
#
# Revision: 1
# Processed by: cddbd v1.5.2PL0 Copyright (c) Steve Scherf et al.
# Submitted via: audiograbber 1.83.01
#
DISCID=900aca0b
DTITLE=Johnny Mastro and Mama's Boys - The Black Album
DYEAR=2004
DGENRE=Blues
TTITLE0=Slave
TTITLE1=Loverman
TTITLE2=Cry For Me
TTITLE3=Middle Of The Night
TTITLE4=Think Twice Before You Go
TTITLE5=Can't Kick The Habit
TTITLE6=Sleeping In The Ground
TTITLE7=Flat Down On My Back
TTITLE8=Chariot
TTITLE9=Done Somebody Wrong
TTITLE10=Billy Boy
EXTD=
EXTT0=
EXTT1=
EXTT2=
EXTT3=
EXTT4=
EXTT5=
EXTT6=
EXTT7=
EXTT8=
EXTT9=
EXTT10=
PLAYORDER=
